<svg viewBox="0 0 330 200" xmlns="http://www.w3.org/2000/svg"><g><g><g><g><g><line x1="40" y1="178" x2="35" y2="178" style="visibility: inherit;" fill="rgb(0, 0, 0)" stroke="rgb(204, 204, 204)" stroke-width="1px"></line><line x1="40" y1="155.75" x2="35" y2="155.75" style="visibility: inherit;" fill="rgb(0, 0, 0)" stroke="rgb(204, 204, 204)" stroke-width="1px"></line><line x1="40" y1="133.5" x2="35" y2="133.5" style="visibility: inherit;" fill="rgb(0, 0, 0)" stroke="rgb(204, 204, 204)" stroke-width="1px"></line><line x1="40" y1="111.25" x2="35" y2="111.25" style="visibility: inherit;" fill="rgb(0, 0, 0)" stroke="rgb(204, 204, 204)" stroke-width="1px"></line><line x1="40" y1="89" x2="35" y2="89" style="visibility: inherit;" fill="rgb(0, 0, 0)" stroke="rgb(204, 204, 204)" stroke-width="1px"></line><line x1="40" y1="66.75" x2="35" y2="66.75" style="visibility: inherit;" fill="rgb(0, 0, 0)" stroke="rgb(204, 204, 204)" stroke-width="1px"></line><line x1="40" y1="44.5" x2="35" y2="44.5" style="visibility: inherit;" fill="rgb(0, 0, 0)" stroke="rgb(204, 204, 204)" stroke-width="1px"></line><line x1="40" y1="22.25" x2="35" y2="22.25" style="visibility: inherit;" fill="rgb(0, 0, 0)" stroke="rgb(204, 204, 204)" stroke-width="1px"></line><line x1="40" y1="0" x2="35" y2="0" style="visibility: inherit;" fill="rgb(0, 0, 0)" stroke="rgb(204, 204, 204)" stroke-width="1px"></line></g><g transform="translate(30, 0)"><text x="0" y="178" dx="0em" dy="0.3em" style="text-anchor: end; visibility: hidden; font-family: &quot;Helvetica Neue&quot;, sans-serif; font-size: 12px; font-weight: 200;" fill="rgb(50, 49, 63)" stroke="none" stroke-width="1px">-10</text><text x="0" y="155.75" dx="0em" dy="0.3em" style="text-anchor: end; visibility: inherit; font-family: &quot;Helvetica Neue&quot;, sans-serif; font-size: 12px; font-weight: 200;" fill="rgb(50, 49, 63)" stroke="none" stroke-width="1px">0</text><text x="0" y="133.5" dx="0em" dy="0.3em" style="text-anchor: end; visibility: hidden; font-family: &quot;Helvetica Neue&quot;, sans-serif; font-size: 12px; font-weight: 200;" fill="rgb(50, 49, 63)" stroke="none" stroke-width="1px">10</text><text x="0" y="111.25" dx="0em" dy="0.3em" style="text-anchor: end; visibility: inherit; font-family: &quot;Helvetica Neue&quot;, sans-serif; font-size: 12px; font-weight: 200;" fill="rgb(50, 49, 63)" stroke="none" stroke-width="1px">20</text><text x="0" y="89" dx="0em" dy="0.3em" style="text-anchor: end; visibility: hidden; font-family: &quot;Helvetica Neue&quot;, sans-serif; font-size: 12px; font-weight: 200;" fill="rgb(50, 49, 63)" stroke="none" stroke-width="1px">30</text><text x="0" y="66.75" dx="0em" dy="0.3em" style="text-anchor: end; visibility: inherit; font-family: &quot;Helvetica Neue&quot;, sans-serif; font-size: 12px; font-weight: 200;" fill="rgb(50, 49, 63)" stroke="none" stroke-width="1px">40</text><text x="0" y="44.5" dx="0em" dy="0.3em" style="text-anchor: end; visibility: hidden; font-family: &quot;Helvetica Neue&quot;, sans-serif; font-size: 12px; font-weight: 200;" fill="rgb(50, 49, 63)" stroke="none" stroke-width="1px">50</text><text x="0" y="22.25" dx="0em" dy="0.3em" style="text-anchor: end; visibility: inherit; font-family: &quot;Helvetica Neue&quot;, sans-serif; font-size: 12px; font-weight: 200;" fill="rgb(50, 49, 63)" stroke="none" stroke-width="1px">60</text><text x="0" y="0" dx="0em" dy="0.3em" style="text-anchor: end; visibility: hidden; font-family: &quot;Helvetica Neue&quot;, sans-serif; font-size: 12px; font-weight: 200;" fill="rgb(50, 49, 63)" stroke="none" stroke-width="1px">70</text></g><line x1="40" y1="0" x2="40" y2="178" fill="rgb(0, 0, 0)" stroke="rgb(204, 204, 204)" stroke-width="1px"></line></g></g><g transform="translate(40, 0)" clip-path="url(#clip_0)"><clipPath id="clip_0"><rect width="290" height="178"></rect></clipPath><g><g><g><line x1="0" y1="0" x2="0" y2="178" fill="rgb(0, 0, 0)" stroke="rgb(60, 60, 60)" stroke-width="1px" opacity="0.25"></line><line x1="24.166666666666664" y1="0" x2="24.166666666666664" y2="178" fill="rgb(0, 0, 0)" stroke="rgb(60, 60, 60)" stroke-width="1px" opacity="0.25"></line><line x1="48.33333333333333" y1="0" x2="48.33333333333333" y2="178" fill="rgb(0, 0, 0)" stroke="rgb(60, 60, 60)" stroke-width="1px" opacity="0.25"></line><line x1="72.5" y1="0" x2="72.5" y2="178" fill="rgb(0, 0, 0)" stroke="rgb(60, 60, 60)" stroke-width="1px" opacity="0.25"></line><line x1="96.66666666666666" y1="0" x2="96.66666666666666" y2="178" fill="rgb(0, 0, 0)" stroke="rgb(60, 60, 60)" stroke-width="1px" opacity="0.25"></line><line x1="120.83333333333334" y1="0" x2="120.83333333333334" y2="178" fill="rgb(0, 0, 0)" stroke="rgb(60, 60, 60)" stroke-width="1px" opacity="0.25"></line><line x1="145" y1="0" x2="145" y2="178" fill="rgb(0, 0, 0)" stroke="rgb(60, 60, 60)" stroke-width="1px" opacity="0.25"></line><line x1="169.16666666666669" y1="0" x2="169.16666666666669" y2="178" fill="rgb(0, 0, 0)" stroke="rgb(60, 60, 60)" stroke-width="1px" opacity="0.25"></line><line x1="193.33333333333331" y1="0" x2="193.33333333333331" y2="178" fill="rgb(0, 0, 0)" stroke="rgb(60, 60, 60)" stroke-width="1px" opacity="0.25"></line><line x1="217.5" y1="0" x2="217.5" y2="178" fill="rgb(0, 0, 0)" stroke="rgb(60, 60, 60)" stroke-width="1px" opacity="0.25"></line><line x1="241.66666666666669" y1="0" x2="241.66666666666669" y2="178" fill="rgb(0, 0, 0)" stroke="rgb(60, 60, 60)" stroke-width="1px" opacity="0.25"></line><line x1="265.8333333333333" y1="0" x2="265.8333333333333" y2="178" fill="rgb(0, 0, 0)" stroke="rgb(60, 60, 60)" stroke-width="1px" opacity="0.25"></line><line x1="290" y1="0" x2="290" y2="178" fill="rgb(0, 0, 0)" stroke="rgb(60, 60, 60)" stroke-width="1px" opacity="0.25"></line></g><g><line x1="0" y1="178" x2="290" y2="178" fill="rgb(0, 0, 0)" stroke="rgb(60, 60, 60)" stroke-width="1px" opacity="0.25"></line><line x1="0" y1="155.75" x2="290" y2="155.75" fill="rgb(0, 0, 0)" stroke="rgb(60, 60, 60)" stroke-width="1px" opacity="0.25"></line><line x1="0" y1="133.5" x2="290" y2="133.5" fill="rgb(0, 0, 0)" stroke="rgb(60, 60, 60)" stroke-width="1px" opacity="0.25"></line><line x1="0" y1="111.25" x2="290" y2="111.25" fill="rgb(0, 0, 0)" stroke="rgb(60, 60, 60)" stroke-width="1px" opacity="0.25"></line><line x1="0" y1="89" x2="290" y2="89" fill="rgb(0, 0, 0)" stroke="rgb(60, 60, 60)" stroke-width="1px" opacity="0.25"></line><line x1="0" y1="66.75" x2="290" y2="66.75" fill="rgb(0, 0, 0)" stroke="rgb(60, 60, 60)" stroke-width="1px" opacity="0.25"></line><line x1="0" y1="44.5" x2="290" y2="44.5" fill="rgb(0, 0, 0)" stroke="rgb(60, 60, 60)" stroke-width="1px" opacity="0.25"></line><line x1="0" y1="22.25" x2="290" y2="22.25" fill="rgb(0, 0, 0)" stroke="rgb(60, 60, 60)" stroke-width="1px" opacity="0.25"></line><line x1="0" y1="0" x2="290" y2="0" fill="rgb(0, 0, 0)" stroke="rgb(60, 60, 60)" stroke-width="1px" opacity="0.25"></line></g></g></g><g><g><line x1="0" y1="155.75" x2="290" y2="155.75" fill="rgb(0, 0, 0)" stroke="rgb(153, 153, 153)" stroke-width="1.5px"></line></g></g><g><g><line x1="24.166666666666664" y1="0" x2="24.166666666666664" y2="178" fill="rgb(0, 0, 0)" stroke="rgb(153, 153, 153)" stroke-width="1.5px"></line></g></g><g><g><g><g><g><path stroke="rgb(0, 119, 187)" stroke-width="2px" d="M30.8125,-0.8062675028761532L30.933333333333334,2.050833029178648L31.054166666666667,-4.4545665858684345L31.416666666666668,0.5283882882898467L31.5375,1.3324066858776575L31.77916666666667,2.385381346021944L32.020833333333336,6.6571612307195664L32.141666666666666,12.44747046158568L32.2625,16.343464039882377L32.38333333333333,19.579710796152142L32.74583333333333,20.413481050194974L32.86666666666667,20.58510618641597L32.987500000000004,22.533742132476306L33.108333333333334,20.16144385208139L33.35,22.451970684427863L33.7125,24.46360451615203L34.31666666666666,26.932977621768202L34.4375,25.658495450256396L34.55833333333334,24.47085380070982L34.67916666666667,29.822096593421122L34.8,30.73238320787945L34.920833333333334,25.24893283132181L35.525,32.67549552507066L36.49166666666667,39.37950950385343L36.854166666666664,33.94192990728516L36.975,37.190382782643695L37.82083333333333,36.961503534331655L38.18333333333333,38.57918819237915L38.425000000000004,41.90921022683236L38.54583333333333,43.82642053002152L38.666666666666664,42.09263935109331L39.150000000000006,41.56503459942542L39.27083333333333,42.36663813789022L39.391666666666666,44.455975543256756L39.75416666666667,45.941906744716334L39.875,47.537330173538834L40.237500000000004,50.24259578173567L40.72083333333333,50.33659727922205L40.9625,51.35833841056302L41.204166666666666,52.32127669746086L41.324999999999996,54.28075597819331L41.44583333333333,53.16826109729196L41.56666666666667,54.28062157536738L42.05,57.51543173733468L42.29166666666667,55.63881115879485L42.65416666666667,56.07677248934428L42.775,58.11713878047179L42.895833333333336,58.18313700516052L43.137499999999996,56.11000785922424L43.25833333333333,60.34522003230701L43.37916666666667,55.62945768771917L43.74166666666667,58.08798085652798L43.983333333333334,55.23675717236404L44.104166666666664,56.01986241651656L44.34583333333334,59.52750445552519L44.46666666666666,62.52684958188445L44.829166666666666,62.774789406113086L45.43333333333334,63.48625055864588L45.55416666666667,61.29622631022416L45.675,62.22092788665941L45.916666666666664,60.85226933270364L46.0375,62.01405248707337L46.27916666666666,61.66461256066444L46.520833333333336,60.99882971596408L46.641666666666666,59.740750924060876L46.7625,59.17398771721727L46.88333333333333,63.11953659700518L47.125,66.34501667408445L47.24583333333333,63.25444473498045L48.09166666666667,62.30930754228221L48.575,63.566907881997736L49.05833333333333,64.4828837962763L49.17916666666667,66.8794848401437L49.300000000000004,68.7236125349456L49.78333333333333,65.39838863607966L50.145833333333336,70.08111974475815L50.50833333333333,70.88416394280215L50.62916666666667,68.943668379109L50.99166666666667,72.22919110162312L51.1125,71.89246445955786L51.35416666666667,69.89143639363023L51.474999999999994,71.25443130944474L51.59583333333333,71.85757768520298L51.8375,69.48516947489132L51.958333333333336,68.57637123144357L52.199999999999996,71.68552305624895L52.32083333333333,72.29371736005552L52.44166666666667,70.43308054420714L52.80416666666667,73.63174060710291L53.166666666666664,71.44822283105862L53.770833333333336,73.14385847280509L54.0125,70.20799446600726L54.25416666666666,75.76743088065417L54.375,73.19265468775528L54.979166666666664,76.91692685043392L55.34166666666666,77.14530648562656L55.4625,79.90670438392966L55.583333333333336,79.99173625340468L55.704166666666666,77.82853136080746L55.94583333333333,76.6610032845631L56.42916666666667,74.02782664114801L56.67083333333333,75.95382344135385L56.9125,77.76262823229278L57.15416666666667,78.67449378660467L57.75833333333333,78.25502349669425L58,76.33847529491597L58.483333333333334,79.38486255884656L59.0875,81.73610939550692L59.329166666666666,79.8822855256098L59.449999999999996,82.57494966161833L59.8125,82.43788533194414L60.05416666666667,81.43108820905418L60.175,80.54930592531045L60.295833333333334,83.6819769343977L60.537499999999994,82.93164828069477L60.65833333333333,83.0802720036952L60.77916666666667,81.56221509735872L61.262499999999996,82.79850120044404L61.38333333333333,83.92827285466583L61.625,83.60214941226239L61.9875,84.60224479033228L62.47083333333334,82.0640711783986L62.59166666666666,82.54412195203427L62.7125,83.85273740004136L62.833333333333336,86.44480419463298L63.075,84.74945663634767L63.4375,82.95925276293653L63.55833333333334,84.40281524189888L63.67916666666667,85.80475925164568L64.04166666666667,83.97001142714707L64.1625,81.90116754659586L64.40416666666667,82.24390395813329L65.12916666666666,86.75072414596762L65.37083333333332,90.01347506833008L65.73333333333333,89.7951862334724L65.85416666666667,89.32670288083052L66.09583333333333,88.16867374418436L66.21666666666667,88.02721365355407L66.82083333333333,88.45504229583116L66.94166666666666,87.55576886962517L67.18333333333334,87.88740625280539L67.425,88.3226149934435L67.54583333333333,87.55412433969401L67.66666666666667,89.95415600793018L68.02916666666667,89.47386311922342L68.14999999999999,88.5005007137887L68.5125,89.92684797465994L68.63333333333333,88.52786789429304L68.875,88.7749463682897L68.99583333333334,90.4100876596884L69.2375,89.3521515528748L69.72083333333333,90.24250082018314L69.84166666666667,89.53955490495169L69.96249999999999,90.23011081162335L70.20416666666667,91.67387691940809L70.325,92.50263961676326L70.6875,91.58817350699643L70.80833333333334,90.37974820515001L70.92916666666667,89.21846591222575L71.05,88.20594385855371L71.29166666666666,88.29483294721231L71.4125,87.61092465541235L71.53333333333333,90.54389036072176L71.65416666666667,92.02465018017818L72.74166666666667,91.31768302192526L72.8625,90.62787841361903L73.10416666666667,91.1178306019434L73.46666666666667,91.430347542532L74.3125,89.73905916486247L74.43333333333332,91.03266761943141L74.91666666666667,87.770345315006L75.0375,90.99150396863618L75.15833333333333,90.13031776356696L75.4,91.25313458209037L75.64166666666667,92.61845520833015L76.125,95.08672648727226L77.21249999999999,95.3659512594898L77.33333333333333,93.67951750252006L77.45416666666667,93.44452297862387L77.575,94.54146091089258L77.81666666666666,96.78934807744986L77.9375,95.59380190829853L78.30000000000001,94.21823598659289L78.6625,93.62499432633074L79.50833333333334,94.95061236423105L79.62916666666668,96.53660578371198L79.75,95.81039206290907L79.87083333333332,97.58074644151132L80.1125,98.78790354575395L80.23333333333333,94.50860276130247L80.35416666666667,96.20284146253711L80.59583333333333,98.42199860921171L80.71666666666667,98.63468313998382L80.8375,102.12293642512797L81.07916666666667,98.81428805441762L81.32083333333333,98.58941435486737L81.44166666666666,97.27919812006154L81.925,97.60127869488238L82.77083333333333,94.97633007551097L83.13333333333334,96.06141671290914L83.25416666666668,96.96350774258921L83.49583333333332,98.6809812324676L83.7375,97.34188582047422L84.1,99.2652146908319L85.42916666666666,98.47180568293787L85.79166666666667,98.54623694369828L85.91250000000001,99.48091267555733L86.03333333333335,100.64430417424309L86.27499999999999,100.80626433972041L86.51666666666667,100.21493168046189L86.6375,99.91629860025711L86.87916666666666,100.68129744781297L87.48333333333333,99.89580281408573L87.60416666666666,100.89405647177662L88.32916666666667,99.93444091355305L88.57083333333334,97.9537244312495L88.69166666666668,100.37801505044281L88.8125,101.81104933330523L88.93333333333332,102.29657924597925L89.05416666666666,100.86311138883511L89.175,99.58101536998319L89.29583333333333,101.32936617236834L89.41666666666667,100.23267045796811L89.53750000000001,100.062229037171L89.65833333333333,100.40634258740269L89.9,101.60176373573019L90.2625,101.10041336686535L90.38333333333333,104.67756092829183L90.50416666666666,103.71780399014159L90.74583333333334,102.00392561155323L91.22916666666667,105.0778404819832L91.47083333333333,103.1072375266472L91.71249999999999,103.43108117870804L92.19583333333334,104.08395750696847L92.31666666666668,104.42488441094987L92.4375,103.76544008031625L92.67916666666666,104.8874644647547L92.92083333333333,104.96890297237088L93.1625,103.56548132123382L93.40416666666667,102.49883356584209L93.525,103.50020000751672L93.88749999999999,104.85970324883377L94.12916666666666,103.52060527449557L94.25,100.70096601275031L94.37083333333334,100.04135824458257L94.49166666666666,101.78961581955227L94.6125,102.74113324981852L94.73333333333333,103.36707626641943L94.97500000000001,102.09277211940976L95.09583333333335,102.59592969010288L95.7,103.3642675613762L95.82083333333334,102.32949963899856L96.0625,102.65065321738962L96.18333333333334,104.94848713764813L96.30416666666667,105.64419573717872L96.66666666666666,104.2674702010963L96.90833333333333,104.34193246855817L97.15,105.80813006218959L97.39166666666667,104.39229544911795L97.63333333333334,105.39901763507136L97.875,105.63199070875888L97.99583333333332,106.05305697789815L98.11666666666666,107.83299580020325L98.47916666666667,107.87891252757677L98.9625,107.7820345587824L99.08333333333333,108.17786060495939L99.325,107.2299265070186L99.44583333333333,105.17764145871557L99.6875,105.57696497166488L100.17083333333333,104.80217860534388L100.77499999999999,106.30941572186113L101.62083333333332,105.35707670209861L101.74166666666666,105.5806619605902L101.98333333333333,106.63508535155555L102.10416666666667,105.9895509667927L102.225,106.62584033654535L102.34583333333333,107.9082201900864L102.46666666666667,107.69673633234407L102.5875,105.4090894297165L102.82916666666667,103.53265435668244L102.94999999999999,105.15358324511298L103.43333333333334,104.93167484559683L103.55416666666666,105.16634774183076L103.79583333333333,105.06826342567706L104.03750000000001,106.20226081266942L104.39999999999999,107.41429660829867L104.64166666666667,108.4050629121838L104.7625,109.44880389110911L104.88333333333334,106.46775840125483L105.24583333333334,106.63354658128023L105.36666666666667,109.4593387832713L105.48750000000001,108.05963288727236L105.60833333333333,107.783677910464L105.72916666666666,107.43162503164827L105.97083333333333,105.25884985877168L106.09166666666667,106.79946442576106L106.2125,107.03680466253672L106.45416666666667,106.61925477170416L106.575,106.10323462953251L106.69583333333334,106.36139884275246L106.81666666666668,107.72030667473106L106.9375,109.49449342256324L107.05833333333332,107.94215206244908L107.3,109.10657970869137L107.42083333333333,108.80634417989012L107.78333333333333,107.79461522375439L108.26666666666667,108.94839224979218L108.62916666666666,110.6278154859837L108.75,108.6685288911996L108.87083333333334,108.97877320325001L109.1125,107.96520186826959L109.23333333333333,108.49365734914169L109.35416666666667,107.76556866561904L109.475,107.16577026126107L109.71666666666667,108.28939543770146L109.83749999999999,107.9349527991199L109.95833333333333,108.35029394128225L110.44166666666668,108.15644231020391L110.925,107.74087704765189L111.04583333333333,108.9415445467674L111.2875,109.4317857444789L111.40833333333333,109.6420889485184L111.52916666666667,111.34890155484102L111.65,109.23542032056942L111.77083333333334,109.22069517024693L111.89166666666667,107.99142028360568L112.25416666666666,109.87876868169906L112.375,108.07232468558193L113.10000000000001,110.87538417597318L113.34166666666665,110.26701055776897L113.46249999999999,110.11401256329908L113.58333333333333,107.1002886033481L113.70416666666667,108.39275075295123L113.94583333333334,108.92761868297191L114.30833333333334,110.89833470618207L114.42916666666667,110.76205391666579L114.79166666666666,112.16153702605538L114.9125,112.49529877584442L115.03333333333333,113.2902024893836L115.275,111.43891389780497L115.51666666666667,109.26402403600963L115.87916666666668,109.48004547171566L116,110.37531690247519L116.24166666666666,110.39239585666456L116.60416666666667,109.74450007121919L116.72500000000001,110.55228744888996L116.84583333333333,110.84303796616015L117.0875,111.1344657774378L117.20833333333333,111.49051112387234L117.32916666666667,112.05596034558805L117.57083333333333,109.71829712410087L117.69166666666666,109.13124846946786L117.8125,110.7191159983372L118.41666666666667,110.65433256744716L118.89999999999999,111.77742204260453L119.02083333333333,110.2755485319592L119.2625,110.32856428763255L119.50416666666668,110.42876594150653L119.74583333333332,111.63153185418004L119.86666666666666,111.4939593194172L119.9875,112.95424395789178L120.10833333333333,109.79378447287961L120.22916666666667,111.15983830305149L120.35,113.29165565974839L120.59166666666667,112.54620860580997L120.83333333333334,113.73160745718715L121.07499999999999,114.82649596463821L121.4375,112.3962874026965L121.67916666666666,112.25944444250291L121.8,112.81301657623783L121.92083333333333,111.08205257574758L122.40416666666665,110.83310880374933L122.64583333333333,110.9561145765306L122.76666666666667,112.40642969028481L123.00833333333334,112.42237235198216L123.37083333333334,113.45555643731234L123.61250000000001,112.83223591622043L123.73333333333333,111.20207397923666L123.85416666666666,110.89393146029589L124.21666666666667,110.77766731733965L124.57916666666667,111.82072796913914L124.7,110.91872717912753L124.94166666666668,111.1326129935727L125.18333333333332,110.48157488003645L125.425,110.14975480732485L126.02916666666667,110.86229451952674L126.27083333333333,111.37271263395725L126.39166666666667,110.83516375896322L126.5125,114.21312796042554L126.63333333333333,113.80063106397505L126.99583333333334,113.74909358131715L127.72083333333333,113.8918192774524L127.96249999999999,112.5723819297832L128.08333333333334,113.58828927292119L128.20416666666665,114.9887499500137L128.325,115.00673105292448L128.44583333333333,112.1793970225628L128.92916666666667,113.82282223453376L129.17083333333335,114.01267155498418L129.29166666666669,112.52951997095438L129.65416666666667,114.46774301513489L129.775,113.9540621375111L129.89583333333334,114.83267192453548L130.01666666666665,114.87027736431601L130.1375,115.16660634473706L130.37916666666666,114.10908669349995L130.5,112.88306189845471L130.62083333333334,114.25586504739803L130.74166666666665,115.59581646801401L130.98333333333332,114.27101069379668L131.34583333333333,114.81010531001581L131.5875,116.2429453957873L131.70833333333334,117.13762217216477L131.95000000000002,117.02506136329642L132.07083333333335,114.70520466465754L132.43333333333334,115.5573726957977L132.55416666666667,114.23814283287169L132.79583333333335,113.96600640818859L132.91666666666666,114.06643743637431L133.7625,115.78782579495447L133.88333333333333,115.35895779844486L134.00416666666666,115.73106117198684L134.125,114.6886150929321L134.24583333333334,114.77912070828611L134.36666666666667,113.41755156086644L134.4875,115.34624397973275L134.72916666666666,114.89679866445098L134.85,114.15894647009392L134.97083333333333,113.50438891629709L135.33333333333334,115.39769793260297L135.45416666666668,115.8254237026465L135.57500000000002,116.10546994271826L135.69583333333333,115.64091439284654L135.9375,116.9315960981713L136.6625,116.01116732229389L136.78333333333333,117.7203986851549L136.90416666666667,117.7546741323576L137.14583333333334,116.8065923593584L137.62916666666666,117.30934785259626L137.99166666666667,115.05064018281018L138.35416666666669,114.7964503938658L138.8375,114.17766124812978L139.2,115.90336945777068L139.32083333333333,117.34404647782404L139.44166666666666,117.5519731213746L139.68333333333334,115.95545551360235L139.80416666666665,116.09273682821146L139.92499999999998,117.51914501898497L140.2875,116.34632234998352L140.40833333333333,115.62275903956774L140.65,116.39097186050824L140.89166666666668,116.36339838577516L141.01250000000002,116.44852677865748L141.25416666666666,116.22691773345426L141.49583333333334,114.92207574230645L141.61666666666667,114.53765115369686L141.85833333333335,115.53574565666514L142.1,116.04867456685065L142.22083333333333,114.31253569561576L142.34166666666667,114.24372968458138L142.4625,114.53524885048272L142.825,115.25511152189851L142.94583333333333,115.0677766146772L143.06666666666666,115.71504701510148L143.42916666666667,116.03540918669151L143.55,116.51655293846754L144.51666666666668,115.68346213188545L144.87916666666666,116.01648371986613L145,116.87730527861157L145.24166666666667,117.42757587041402L145.48333333333335,116.80915101770128L145.60416666666666,116.84572136165838L145.96666666666667,116.02560380317055L146.0875,117.29731327067188L146.32916666666668,117.43015088659746L146.45,115.88570123447312L146.57083333333333,114.93736064394315L146.69166666666666,115.06019052958489L147.05416666666667,114.31415304837228L148.02083333333331,116.65596525012018L148.14166666666668,118.50157191359139L148.2625,117.47270199062308L148.50416666666666,116.72193979026008L148.74583333333334,117.62226789713579L148.86666666666665,119.85457970571922L148.9875,118.82882295770888L149.22916666666666,117.4136135454383L149.47083333333333,117.24303718777934L149.59166666666667,115.88298886997961L149.7125,118.60596554984726L150.075,118.39150958961294L150.19583333333335,118.82137260023384L150.31666666666666,117.33698428859489L150.92083333333332,115.97369837039814L151.1625,117.63981560274425L151.28333333333333,118.55515553596295L151.52499999999998,118.48647180821108L151.64583333333334,117.37108354345325L151.88750000000002,116.83375285968401L152.6125,118.70259631458055L152.73333333333332,118.59852869023759L152.975,120.82095696633982L153.21666666666667,117.60920059505659L153.70000000000002,116.66978080167507L153.9416666666667,117.23666529115519L154.1833333333333,116.8317065111189L154.42499999999998,117.4908703536623L154.66666666666666,117.27363470380504L154.90833333333333,117.68953970900176L155.02916666666667,119.27434583086372L155.15,118.33028226124407L155.27083333333334,118.3925926698873L155.39166666666668,119.95695883832155L155.875,118.10765381098852L156.11666666666667,117.71247553015391L156.23749999999998,118.12493235102082L156.9625,118.3388409795212L157.20416666666668,118.38756133209748L157.44583333333335,118.6960355251496L157.56666666666666,119.27645340737493L157.6875,120.9016143082189L158.4125,119.8874278973703L158.775,119.73419295973565L159.01666666666668,119.56784201638095L159.37916666666666,119.28949604616281L159.74166666666665,120.1251847683532L159.8625,121.80130266780512L160.10416666666669,120.81731190463816L160.225,121.85005369055816L160.34583333333333,122.50891788404316L160.46666666666667,120.67481091261584L160.70833333333334,121.67417689943717L160.82916666666665,119.85846318235639L161.07083333333333,119.1998384227195L161.19166666666666,119.2611304515504L161.3125,118.7239842745008L161.675,119.45455603673112L161.79583333333332,119.46859635397226L162.0375,119.72687131335992L163.0041666666667,118.03307911736165L163.125,118.55412004579541L163.2458333333333,118.10108603351973L163.36666666666667,120.19227395363845L163.72916666666666,120.6516992682707L163.85,121.76975882258964L163.97083333333333,122.35038726453156L164.33333333333334,122.35471450402838L164.45416666666668,120.13193314501346L164.575,119.61791486518801L164.9375,120.44940389500391L166.3875,121.12687939945658L166.75,120.80008416738391L166.99166666666665,119.47159318307806L167.1125,121.3630866585956L167.35416666666666,120.3082763039342L167.475,118.92478191395233L167.8375,118.87178866588849L168.2,118.15771393134462L168.32083333333335,117.56445660206239L168.44166666666666,119.47505968816614L168.5625,120.6611244607421L168.68333333333334,120.93810983231378L168.80416666666665,121.80114049274155L168.925,122.83098032568948L169.04583333333332,122.20395146903428L169.2875,120.03777129111907L169.52916666666667,119.59622921143902L169.64999999999998,120.57975062844118L169.89166666666665,119.94772529314136L170.13333333333333,121.69583532160624L170.375,122.08217852679553L170.49583333333334,120.69657995085515L170.61666666666667,119.78967347252726L170.7375,121.24258727138258L170.85833333333332,121.47305745545039L170.97916666666666,120.25416120209103L171.4625,118.29538809012058L172.0666666666667,118.8417322322767L172.1875,120.98649162322528L172.42916666666667,120.47711962145715L172.54999999999998,119.46034756709426L173.03333333333333,118.68617802267843L173.15416666666667,119.00618435266956L173.275,120.0473784334859L173.51666666666668,119.49014256759887L173.87916666666666,121.47629278161766L174.24166666666667,120.22846813952114L174.48333333333335,120.94566389533988L174.72500000000002,120.63734846957392L174.84583333333333,122.04080282716671L175.0875,121.84447647016478L175.20833333333331,121.29724370528001L175.57083333333335,119.89359036379301L175.69166666666666,121.17465628202703L175.8125,120.28752862105338L176.05416666666665,120.40658974343282L176.175,121.246667564474L176.29583333333332,122.08510422978546L176.5375,121.05878937884418L176.65833333333333,121.47137546446471L176.77916666666667,122.53725866262047L176.9,122.02688582768398L177.02083333333334,121.12258897799467L177.14166666666668,121.66156980143913L177.74583333333334,122.22071269003706L177.86666666666665,123.18367891101931L178.10833333333332,123.70556712978419L178.59166666666667,122.27440442581974L178.71249999999998,122.61349631989003L178.95416666666665,121.15732913043499L179.4375,121.3668190862322L179.67916666666667,120.64348998460676L179.92083333333332,121.60799241300526L180.1625,121.49056315562787L180.28333333333333,122.31216811264552L180.40416666666667,123.21365434125065L180.525,121.70650956031679L180.76666666666665,121.72608777163623L181.1291666666667,121.60131766008257L181.25,121.97925069813084L181.49166666666667,121.56071774294466L181.61249999999998,122.28215444642598L181.73333333333335,121.61666037415442L181.975,121.42274932965623L182.45833333333334,123.3430258089601L182.7,122.75591993178719L182.82083333333333,122.3308005228388L183.0625,122.75754762975858L183.18333333333334,122.48832770161917L183.54583333333335,122.14088283045942L183.66666666666666,123.36029088296803L184.27083333333331,123.8580672871966L184.39166666666668,123.72120964836472L184.5125,122.593239647814L184.63333333333335,122.73847285668157L184.875,121.88578488206923L185.11666666666665,122.69734533414878L185.2375,123.57807105890296L185.35833333333332,121.71330316848386L185.47916666666666,122.07143828384179L185.6,122.07727745242177L185.72083333333333,121.56528719822919L186.08333333333334,121.97189939832899L186.44583333333335,121.91559475908406L186.6875,121.8972969380005L186.92916666666665,123.2582966141095L187.05,123.42812338663282L187.17083333333332,123.42183096404756L187.29166666666669,124.24462606904437L187.4125,124.86146731852014L187.89583333333334,123.19717358874391L188.37916666666666,123.18543523387379L188.62083333333334,122.4985528006331L188.74166666666667,122.9084691056118L189.10416666666666,124.03858444264566L189.225,125.24132090789696L189.34583333333333,124.64324574221743L189.70833333333334,123.09010721057399L190.07083333333333,121.01395377641764L190.1916666666667,120.4095890398374L190.3125,121.07287187788194L190.55416666666667,121.77389156468692L190.67499999999998,123.67878337173451L190.79583333333335,124.30454074066157L191.15833333333333,124.48467617703244L191.4,124.16517080708006L191.52083333333334,125.10269175197874L191.64166666666668,124.87573265448925L191.7625,124.55278023371528L191.88333333333333,124.8925507848825L192.00416666666666,124.72032730968988L192.24583333333334,124.40993744607087L192.36666666666667,123.41974760100435L192.72916666666666,123.1720592272591L193.33333333333331,123.23213841034837L194.78333333333333,123.152362746679L194.90416666666667,123.10101144950582L195.025,124.32502499485608L195.14583333333334,123.30429020443319L195.62916666666666,124.57764937710022L195.99166666666665,126.3674927176908L196.1125,122.92136839520188L196.35416666666669,123.61940451795608L196.475,125.12861233433932L196.59583333333333,123.98693739343196L196.71666666666667,124.03923358779258L196.95833333333334,124.33465690530005L197.20000000000002,125.45813173244395L197.32083333333333,124.92135435456036L197.44166666666666,123.04753240414857L197.68333333333334,123.33378996174574L197.80416666666667,122.40680560660982L197.925,124.41630963082685L198.16666666666666,123.17578520056946L198.40833333333333,123.3615375857195L199.13333333333333,122.16656965378766L199.375,123.74558172681239L199.97916666666666,122.12919557844583L200.1,122.51260226222864L200.58333333333334,122.60691434653396L201.1875,122.62477391309616L201.30833333333334,124.17893996087955L201.79166666666666,125.10163120179323L202.275,125.2495889887151L202.6375,125.12975633054596L203,123.76441252177729L203.12083333333334,124.09266538110836L203.24166666666665,123.97567908935227L203.60416666666666,124.55484739883232L203.725,124.36703414883308L204.0875,123.1792633817559L204.32916666666668,125.31763255870136L204.45,126.00364866897937L204.57083333333335,125.98028061297819L205.41666666666669,127.13405885164312L205.5375,125.73675640740616L205.65833333333333,125.2985878868021L205.77916666666667,126.17648816604122L206.02083333333334,125.45726771651925L206.14166666666665,126.35572176157964L206.26250000000002,125.66590828048905L206.38333333333333,124.98355419604613L206.50416666666666,125.27001697998423L206.625,123.84988620270002L206.74583333333334,125.71091507428115L206.86666666666667,125.67096849532857L206.9875,125.973245722365L207.35,125.59897062677837L207.59166666666667,125.99318022190747L208.19583333333333,126.45806588804255L208.3166666666667,126.7222566966744L208.4375,126.0762423351128L208.67916666666667,124.78418849913592L209.525,123.06705814724155L209.76666666666668,122.40980507686729L210.37083333333334,124.1827105531394L210.49166666666667,124.57300141389965L210.97500000000002,126.06512203059076L211.21666666666667,125.18742561245845L211.3375,124.99815145435862L211.57916666666668,125.81306171001751L211.7,126.60674944628335L211.94166666666666,124.44666759913596L212.0625,124.86662461725135L212.7875,125.3922151611284L212.90833333333333,124.84891796386454L213.02916666666667,124.96555120632776L213.63333333333335,125.00755399039821L213.75416666666666,125.23150197965764L214.84166666666667,125.43057761372842L214.96249999999998,125.73587309945654L215.32500000000002,127.49354786174911L215.44583333333333,125.322827878579L215.56666666666666,126.5580734723714L215.80833333333334,127.2348441597168L216.05,126.33910197236204L216.29166666666666,126.43821134935655L216.65416666666667,125.83886923057341L216.775,126.8622092870623L217.01666666666665,125.58655646251142L217.13750000000002,124.74912879709305L217.3791666666667,125.80249163296163L217.6208333333333,125.39015284530127L217.74166666666667,125.43947706789854L217.98333333333335,124.57044724804808L218.10416666666666,124.9733663522163L218.5875,126.53406926887982L218.70833333333334,126.85699401913735L218.95,125.68412114750535L219.07083333333333,125.42442558271404L219.19166666666666,124.63534932889172L219.3125,125.62442874406354L219.55416666666667,125.6302202003871L219.67499999999998,126.47043474779574L219.79583333333335,125.8720645348194L219.91666666666666,127.36409210681694L220.4,127.33828695011005L220.64166666666668,125.93487370128551L220.7625,126.25272107669781L220.88333333333335,124.30286006301088L221.125,124.98874711614516L221.36666666666665,124.28169366611044L221.60833333333332,125.51043126161694L221.85,124.38548740610958L221.97083333333333,124.77594999829222L222.09166666666667,125.6882268402534L222.33333333333334,125.46468727907879L222.45416666666668,125.58715439511147L222.575,125.67402910633567L222.69583333333335,125.96016495373061L222.81666666666666,127.3560030230654L222.9375,127.45693040423231L223.17916666666665,126.74556773503204L223.3,125.68015330314387L223.6625,125.69893661308139L223.78333333333333,126.98381335716158L224.02499999999998,127.76137169349616L224.14583333333334,127.37360596745268L224.50833333333333,128.148684530789L224.62916666666666,128.91021811326405L224.75,127.25801406002081L224.87083333333334,127.10835331974052L224.99166666666667,126.40074897228254L225.23333333333332,126.86503033887489L225.71666666666667,126.24531516224826L225.95833333333334,126.84663327688388L226.07916666666665,127.11872511955744L226.20000000000002,127.05902358682542L226.5625,125.87430994982475L226.6833333333333,125.21747712895245L226.92499999999998,126.15037692907435L227.40833333333333,127.13192840887893L227.52916666666667,125.75229227825278L227.65,126.02087717702553L227.77083333333334,126.35899159819223L228.0125,126.26972290462459L228.49583333333334,125.15047051302315L228.61666666666667,126.58166647071673L228.85833333333335,125.73541787216087L228.97916666666666,126.04891748278749L229.10000000000002,127.56126502900966L229.22083333333333,126.3537471613267L229.4625,126.49633322721593L229.825,126.52833426097556L229.94583333333335,126.93330600321009L230.06666666666666,126.51184631860087L230.1875,127.10899598047632L230.30833333333334,126.04707265046537L230.67083333333332,127.13697831241666L230.79166666666666,126.62478792433964L231.275,128.0497066054644L231.39583333333334,128.4248344727696L231.6375,127.74970218588953L231.75833333333335,127.3300511279705L231.87916666666666,128.45105622762458L232.3625,127.41798269363652L232.725,127.59674724824674L232.96666666666667,127.53237701944974L233.32916666666665,126.4575525277404L233.45000000000002,126.29783521613766L233.57083333333333,127.13740045142941L233.69166666666666,127.1572387594746L233.8125,126.8040169560174L234.05416666666667,128.12648204822898L234.175,128.74375557338928L234.29583333333332,127.83402153632483L234.65833333333333,126.60021896351242L234.77916666666667,126.2928084945015L235.02083333333334,127.48604771228622L235.14166666666665,127.71574950177664L235.26250000000002,128.0549726960611L235.625,127.53549195275019L235.86666666666667,126.39860795584507L235.98749999999998,127.7031802478265L236.10833333333335,128.70774969952294L236.22916666666666,127.33267275748841L237.075,127.3471145836007L237.19583333333333,126.66599946305104L237.55833333333334,127.20302329233259L238.16250000000002,127.51596307856423L238.64583333333331,128.23569363655199L238.8875,129.0492434257361L239.12916666666666,128.99246965849954L239.37083333333334,129.12604004743432L239.49166666666665,129.15148328901967L239.6125,127.78607436634088L239.73333333333332,127.44831339727034L240.21666666666667,127.70600173121804L240.3375,126.63892045286963L240.45833333333334,127.15542401473324L240.7,126.924616284374L240.82083333333335,127.15962530803895L240.94166666666666,125.79890510578284L241.425,126.30912108623582L241.66666666666669,128.49446002127885L241.90833333333333,128.34986471821165L242.14999999999998,128.44835331731616L242.27083333333334,127.31038690265166L242.51250000000002,127.81042002115336L242.99583333333334,126.47311051412635L243.2375,127.17699134662277L243.35833333333332,127.82340874382572L243.72083333333333,127.76334705179164L244.08333333333334,127.00148170367021L244.5666666666667,127.57706282362423L244.8083333333333,128.19871418610265L244.92916666666667,128.4920912130776L245.29166666666666,127.54927711630481L245.775,127.07917460527788L245.89583333333334,127.22538299040062L246.01666666666668,127.63418588326016L246.1375,128.83187429240726L246.5,127.94420342523685L246.62083333333334,128.46709156083364L246.74166666666667,129.2684734442669L246.98333333333335,129.45013146989572L247.10416666666666,128.98820783968586L247.22500000000002,129.79418112203967L247.46666666666667,128.09578161099844L247.5875,129.42030915176446L247.95,129.09950320574984L248.07083333333335,128.76734941871968L248.3125,128.04248169941906L248.55416666666665,128.33602058817866L248.675,129.27017119842722L248.79583333333332,128.44327037881584L249.64166666666668,126.90493012279732L249.7625,127.78100971704998L249.88333333333335,128.1038404531853L250.00416666666666,126.94163708135943L250.72916666666669,127.23113681462681L250.85,129.3868269728856L250.97083333333333,128.79123776240567L251.09166666666667,128.263252579471L251.21249999999998,127.45947620588572L251.45416666666665,128.1894629413964L251.81666666666666,127.70382586092245L252.17916666666667,129.2103738818794L252.6625,127.37834306920942L252.78333333333333,128.7164291546665L252.90416666666667,128.47832873379724L253.025,129.36733192274295L253.14583333333334,130.04369049352005L253.38750000000002,130.34912413764948L253.50833333333333,128.84269516473387L253.99166666666667,128.86749841216428L254.35416666666666,129.1209704961969L254.475,129.05099171200953L254.8375,128.86519816517568L254.95833333333334,129.4084930312618L255.07916666666668,129.26544041943455L255.2,128.69628348536435L255.32083333333333,128.86966602436985L255.5625,129.12974108953648L255.68333333333334,129.9419092136584L255.80416666666667,127.85142472016585L255.92499999999998,127.27714234964714L256.04583333333335,128.3456198881666L256.5291666666667,127.8528912467122L256.65,128.20934124483824L256.7708333333333,128.19445326145984L257.1333333333333,128.5914278162509L257.375,127.54585619765459L257.49583333333334,127.6461961221572L257.6166666666667,128.76438272189358L257.85833333333335,127.70399286860979L257.97916666666663,127.52855626651498L258.1,127.81011365836176L258.3416666666667,128.2692553364355L258.4625,127.76671689052097L258.825,127.22732853709883L259.06666666666666,128.99816061865823L259.30833333333334,129.50282691127978L259.4291666666667,128.6574791896756L259.67083333333335,128.97126130035014L260.0333333333333,130.10038293224866L260.275,129.51777345670638L260.3958333333333,129.86535531242714L260.51666666666665,128.64556687092798L260.7583333333333,129.09392566332826L261,128.8244871023274L261.12083333333334,129.702131121336L261.2416666666667,129.65736706315195L261.72499999999997,129.27605118309685L261.84583333333336,130.39391442033786L262.08750000000003,129.70310490067683L262.32916666666665,130.41683331928184L262.93333333333334,129.84976940036734L263.4166666666667,130.26962847638677L263.53749999999997,129.634939851335L263.65833333333336,129.97121013043602L263.77916666666664,130.2426987650292L265.2291666666667,130.55423875822405L265.4708333333333,130.4516659317838L265.7125,129.86655073514146" style="fill: none;" fill="none"></path></g></g></g></g><g opacity="0.2"><g><g><g><path stroke="rgb(0, 119, 187)" stroke-width="2px" d="M29.845833333333335,-4.060108947753918L30.0875,8.66913452148438L30.208333333333336,-22.195899391174322L30.570833333333336,-2.676342010498047L30.691666666666666,2.268643760681158L30.8125,3.6484214782715014L30.933333333333334,6.33647651672365L31.054166666666667,-14.212656021118164L31.416666666666668,8.002816009521467L31.5375,2.538433837890608L31.77916666666667,3.964842987060564L32.020833333333336,13.064830207824713L32.141666666666666,21.132933616638184L32.2625,22.187454128265387L32.38333333333333,24.434080791473406L32.74583333333333,21.66413640975952L32.86666666666667,20.842543888092024L32.987500000000004,25.456696033477783L33.108333333333334,16.602996444702143L33.35,25.88776092529295L33.7125,27.48105525970459L34.31666666666666,30.63703727722168L34.4375,23.746772193908697L34.55833333333334,22.689391326904314L34.67916666666667,37.84896078109742L34.8,32.09781312942505L34.920833333333334,17.023757266998274L35.525,43.8153395652771L36.49166666666667,49.43553047180174L36.854166666666664,25.78556051254273L36.975,42.063062095642096L37.82083333333333,36.61818466186523L38.18333333333333,41.00571517944334L38.425000000000004,46.9042432785034L38.54583333333333,46.70223598480223L38.666666666666664,39.49196758270264L39.150000000000006,40.773627471923845L39.27083333333333,43.56904344558714L39.391666666666666,47.58998165130615L39.75416666666667,48.17080354690552L39.875,49.930465316772455L40.237500000000004,54.30049419403076L40.72083333333333,50.477599525451666L40.9625,52.89095010757447L41.204166666666666,53.76568412780762L41.324999999999996,57.219974899292L41.44583333333333,51.49951877593995L41.56666666666667,55.949162292480466L42.05,62.36764698028564L42.29166666666667,52.8238802909851L42.65416666666667,56.73371448516846L42.775,61.17768821716308L42.895833333333336,58.2821343421936L43.137499999999996,53.00031414031983L43.25833333333333,66.69803829193116L43.37916666666667,48.55581417083741L43.74166666666667,61.775765609741214L43.983333333333334,50.95992164611816L44.104166666666664,57.19452028274536L44.34583333333334,64.78896751403809L44.46666666666666,67.02586727142334L44.829166666666666,63.14669914245606L45.43333333333334,64.55344228744507L45.55416666666667,58.01118993759155L45.675,63.607980251312256L45.916666666666664,58.799281501770025L46.0375,63.75672721862793L46.27916666666666,61.14045267105102L46.520833333333336,60.000155448913574L46.641666666666666,57.85363273620605L46.7625,58.32384290695191L46.88333333333333,69.03785991668701L47.125,71.18323678970337L47.24583333333333,58.61858682632446L48.09166666666667,60.891601753234866L48.575,65.45330839157104L49.05833333333333,65.8568476676941L49.17916666666667,70.47438640594483L49.300000000000004,71.48980407714843L49.78333333333333,60.41055278778076L50.145833333333336,77.10521640777588L50.50833333333333,72.08873023986817L50.62916666666667,66.03292503356934L50.99166666666667,77.15747518539429L51.1125,71.38737449645996L51.35416666666667,66.88989429473877L51.474999999999994,73.2989236831665L51.59583333333333,72.76229724884033L51.8375,65.92655715942382L51.958333333333336,67.21317386627197L52.199999999999996,76.34925079345703L52.32083333333333,73.20600881576539L52.44166666666667,67.64212532043457L52.80416666666667,78.42973070144653L53.166666666666664,68.17294616699219L53.770833333333336,75.6873119354248L54.0125,65.80419845581055L54.25416666666666,84.10658550262451L54.375,69.33049039840698L54.979166666666664,82.5033350944519L55.34166666666666,77.48787593841553L55.4625,84.04880123138427L55.583333333333336,80.1192840576172L55.704166666666666,74.58372402191162L55.94583333333333,74.90971117019653L56.42916666666667,70.07806167602538L56.67083333333333,78.8428186416626L56.9125,80.47583541870117L57.15416666666667,80.04229211807251L57.75833333333333,77.62581806182861L58,73.46365299224854L58.483333333333334,83.95444345474243L59.0875,85.26297965049744L59.329166666666666,77.10154972076415L59.449999999999996,86.61394586563111L59.8125,82.23228883743286L60.05416666666667,79.92089252471924L60.175,79.22663249969483L60.295833333333334,88.38098344802856L60.537499999999994,81.80615530014038L60.65833333333333,83.3032075881958L60.77916666666667,79.285129737854L61.262499999999996,84.65293035507202L61.38333333333333,85.62293033599853L61.625,83.11296424865722L61.9875,86.10238785743714L62.47083333333334,78.25681076049804L62.59166666666666,83.26419811248779L62.7125,85.815660572052L62.833333333333336,90.33290438652038L63.075,82.20643529891967L63.4375,80.27394695281983L63.55833333333334,86.5681589603424L63.67916666666667,87.90767526626587L64.04166666666667,81.21788969039918L64.1625,78.79790172576904L64.40416666666667,82.75800857543945L65.12916666666666,93.51095442771911L65.37083333333332,94.90760145187379L65.73333333333333,89.46775298118591L65.85416666666667,88.62397785186768L66.09583333333333,86.4316300392151L66.21666666666667,87.81502351760864L66.82083333333333,89.09678525924683L66.94166666666666,86.20685873031616L67.18333333333334,88.38486232757569L67.425,88.97542810440063L67.54583333333333,86.40138835906983L67.66666666666667,93.55420351028442L68.02916666666667,88.75342378616332L68.14999999999999,87.04045710563659L68.5125,92.0663688659668L68.63333333333333,86.42939777374268L68.875,89.14556407928467L68.99583333333334,92.8627995967865L69.2375,87.76524739265442L69.72083333333333,91.57802472114564L69.84166666666667,88.48513603210449L69.96249999999999,91.26594467163086L70.20416666666667,93.8395260810852L70.325,93.74578366279603L70.6875,90.21647434234619L70.80833333333334,88.56711025238037L70.92916666666667,87.47654247283936L71.05,86.68716077804565L71.29166666666666,88.4281665802002L71.4125,86.5850622177124L71.53333333333333,94.94333891868591L71.65416666666667,94.24578990936278L72.74166666666667,90.2572322845459L72.8625,89.59317150115966L73.10416666666667,91.85275888442993L73.46666666666667,91.89912295341492L74.3125,87.20212659835815L74.43333333333332,92.97308030128478L74.91666666666667,82.87686185836792L75.0375,95.82324194908142L75.15833333333333,88.83853845596313L75.4,92.93735980987549L75.64166666666667,94.66643614768982L76.125,98.78913340568543L77.21249999999999,95.78478841781616L77.33333333333333,91.14986686706543L77.45416666666667,93.09203119277954L77.575,96.18686780929566L77.81666666666666,100.16117882728577L77.9375,93.80048265457152L78.30000000000001,92.15488710403442L78.6625,92.73513183593751L79.50833333333334,96.93903942108155L79.62916666666668,98.91559591293334L79.75,94.72107148170471L79.87083333333332,100.23627800941468L80.1125,100.59863920211792L80.23333333333333,88.08965158462524L80.35416666666667,98.74419951438904L80.59583333333333,101.75073432922363L80.71666666666667,98.95370993614198L80.8375,107.35531635284424L81.07916666666667,93.85131549835205L81.32083333333333,98.25210380554199L81.44166666666666,95.31387376785278L81.925,98.08439955711366L82.77083333333333,91.03890714645387L83.13333333333334,97.68904666900634L83.25416666666668,98.31664428710938L83.49583333333332,101.25719146728515L83.7375,95.33324270248413L84.1,102.15020799636841L85.42916666666666,97.2816921710968L85.79166666666667,98.65788383483887L85.91250000000001,100.88292627334594L86.03333333333335,102.38939142227173L86.27499999999999,101.0492045879364L86.51666666666667,99.3279326915741L86.6375,99.46834897994995L86.87916666666666,101.82879571914673L87.48333333333333,98.71756086349488L87.60416666666666,102.39143695831298L88.32916666666667,98.49501757621765L88.57083333333334,94.98264970779418L88.69166666666668,104.01445097923279L88.8125,103.96060075759887L88.93333333333332,103.02487411499023L89.05416666666666,98.71290960311889L89.175,97.65787134170533L89.29583333333333,103.95189237594604L89.41666666666667,98.5876268863678L89.53750000000001,99.80656690597534L89.65833333333333,100.92251291275024L89.9,103.39489545822143L90.2625,100.34838781356812L90.38333333333333,110.04328227043152L90.50416666666666,102.27816858291625L90.74583333333334,99.43310804367066L91.22916666666667,109.68871278762818L91.47083333333333,100.15133309364319L91.71249999999999,103.91684665679931L92.19583333333334,105.06327199935913L92.31666666666668,104.936274766922L92.4375,102.77627358436585L92.67916666666666,106.57050104141236L92.92083333333333,105.09106073379517L93.1625,101.4603488445282L93.40416666666667,100.89886193275451L93.525,105.00224967002869L93.88749999999999,106.89895811080932L94.12916666666666,101.51195831298828L94.25,96.47150712013244L94.37083333333334,99.05194659233094L94.49166666666666,104.41200218200684L94.6125,104.16840939521789L94.73333333333333,104.30599079132081L94.97500000000001,100.18131589889526L95.09583333333335,103.35066604614258L95.7,104.51677436828614L95.82083333333334,100.77734775543213L96.0625,103.1323835849762L96.18333333333334,108.3952380180359L96.30416666666667,106.68775863647461L96.66666666666666,102.20238189697265L96.90833333333333,104.45362586975098L97.15,108.00742645263672L97.39166666666667,102.2685435295105L97.63333333333334,106.90910091400146L97.875,105.98145031929016L97.99583333333332,106.68465638160706L98.11666666666666,110.5029040336609L98.47916666666667,107.9477876186371L98.9625,107.63671760559082L99.08333333333333,108.77159967422484L99.325,105.80802536010742L99.44583333333333,102.09921388626098L99.6875,106.17595024108887L100.17083333333333,103.63999905586242L100.77499999999999,108.57027139663695L101.62083333333332,103.92856817245483L101.74166666666666,105.91603984832763L101.98333333333333,108.21672043800355L102.10416666666667,105.02124938964845L102.225,107.58027439117431L102.34583333333333,109.83178997039795L102.46666666666667,107.37951054573058L102.5875,101.97761907577514L102.82916666666667,100.71800174713134L102.94999999999999,107.58497657775878L103.43333333333334,104.59881224632262L103.55416666666666,105.51835708618164L103.79583333333333,104.92113695144654L104.03750000000001,107.90325689315796L104.39999999999999,109.23235030174256L104.64166666666667,109.89121236801147L104.7625,111.01441535949708L104.88333333333334,101.9961901664734L105.24583333333334,106.88222885131836L105.36666666666667,113.69802708625794L105.48750000000001,105.96007404327393L105.60833333333333,107.36974544525147L105.72916666666666,106.90354571342469L105.97083333333333,101.99968709945678L106.09166666666667,109.11038627624511L106.2125,107.39281501770019L106.45416666666667,105.99292993545532L106.575,105.32920441627503L106.69583333333334,106.7486451625824L106.81666666666668,109.75866842269897L106.9375,112.15577354431151L107.05833333333332,105.61364002227783L107.3,110.85322117805481L107.42083333333333,108.35599088668823L107.78333333333333,106.27702178955077L108.26666666666667,110.67905778884888L108.62916666666666,113.146950340271L108.75,105.72959899902344L108.87083333333334,109.44413967132569L109.1125,106.44484486579894L109.23333333333333,109.28634057044984L109.35416666666667,106.67343564033509L109.475,106.26607265472411L109.71666666666667,109.97483320236206L109.83749999999999,107.40328884124756L109.95833333333333,108.97330565452576L110.44166666666668,107.86566486358642L110.925,107.11752915382385L111.04583333333333,110.74254579544068L111.2875,110.16714754104613L111.40833333333333,109.95754375457763L111.52916666666667,113.90912046432494L111.65,106.06519846916198L111.77083333333334,109.19860744476318L111.89166666666667,106.1475079536438L112.25416666666666,112.70979127883912L112.375,105.36265869140625L113.10000000000001,115.07997341156006L113.34166666666665,109.35445013046264L113.46249999999999,109.88451557159424L113.58333333333333,102.57970266342163L113.70416666666667,110.33144397735596L113.94583333333334,109.72992057800293L114.30833333333334,113.85440874099731L114.42916666666667,110.55763273239135L114.79166666666666,114.26076169013977L114.9125,112.99594140052795L115.03333333333333,114.48255805969238L115.275,108.661981010437L115.51666666666667,106.00168924331665L115.87916666666668,109.80407762527466L116,111.7182240486145L116.24166666666666,110.41801428794861L116.60416666666667,108.77265639305115L116.72500000000001,111.76396851539612L116.84583333333333,111.27916374206542L117.0875,111.57160749435424L117.20833333333333,112.02457914352418L117.32916666666667,112.90413417816161L117.57083333333333,106.21180229187011L117.69166666666666,108.25067548751831L117.8125,113.10091729164124L118.41666666666667,110.55715742111205L118.89999999999999,113.46205625534058L119.02083333333333,108.02273826599121L119.2625,110.40808792114258L119.50416666666668,110.5790684223175L119.74583333333332,113.43568072319032L119.86666666666666,111.28760051727295L119.9875,115.14467091560364L120.10833333333333,105.05309524536132L120.22916666666667,113.20891904830933L120.35,116.4893816947937L120.59166666666667,111.42803802490234L120.83333333333334,115.50970573425293L121.07499999999999,116.46882872581482L121.4375,108.75097455978393L121.67916666666666,112.05418000221253L121.8,113.64337477684022L121.92083333333333,108.4856065750122L122.40416666666665,110.45969314575196L122.64583333333333,111.1406232357025L122.76666666666667,114.58190236091613L123.00833333333334,112.44628634452819L123.37083333333334,115.00533256530761L123.61250000000001,111.89725513458252L123.73333333333333,108.75683107376098L123.85416666666666,110.43171768188476L124.21666666666667,110.60327110290528L124.57916666666667,113.38531894683838L124.7,109.56572599411011L124.94166666666668,111.45344171524049L125.18333333333332,109.50501770973206L125.425,109.65202469825745L126.02916666666667,111.93110408782958L126.27083333333333,112.13833980560302L126.39166666666667,110.02884044647216L126.5125,119.28007426261902L126.63333333333333,113.18188571929932L126.99583333333334,113.67178735733033L127.72083333333333,114.10590782165528L127.96249999999999,110.59322590827942L128.08333333333334,115.11215028762817L128.20416666666665,117.08944096565247L128.325,115.03370270729064L128.44583333333333,107.93839597702026L128.92916666666667,116.28796005249023L129.17083333333335,114.29744553565979L129.29166666666669,110.30479259490967L129.65416666666667,117.37507758140563L129.775,113.18354082107544L129.89583333333334,116.15058660507202L130.01666666666665,114.92668552398682L130.1375,115.61109981536865L130.37916666666666,112.5228072166443L130.5,111.04402470588684L130.62083333333334,116.31506977081298L130.74166666666665,117.60574359893799L130.98333333333332,112.2838020324707L131.34583333333333,115.61874723434448L131.5875,118.39220552444458L131.70833333333334,118.47963733673096L131.95000000000002,116.8562201499939L132.07083333333335,111.22541961669923L132.43333333333334,116.83562474250793L132.55416666666667,112.25929803848267L132.79583333333335,113.55780177116394L132.91666666666666,114.21708397865295L133.7625,118.3699083328247L133.88333333333333,114.71565580368042L134.00416666666666,116.28921623229981L134.125,113.12494597434998L134.24583333333334,114.91487913131714L134.36666666666667,111.37519783973694L134.4875,118.23928260803223L134.72916666666666,114.22263069152832L134.85,113.05216817855835L134.97083333333333,112.52255258560182L135.33333333333334,118.23766145706176L135.45416666666668,116.4670123577118L135.57500000000002,116.52553930282593L135.69583333333333,114.94408106803894L135.9375,118.86761865615844L136.6625,114.63052415847778L136.78333333333333,120.28424572944641L136.90416666666667,117.80608730316162L137.14583333333334,115.38446969985962L137.62916666666666,118.063481092453L137.99166666666667,111.66257867813111L138.35416666666669,114.41516571044922L138.8375,113.24947752952575L139.2,118.49193177223205L139.32083333333333,119.50506200790406L139.44166666666666,117.86386308670043L139.68333333333334,113.56067910194396L139.80416666666665,116.29865880012512L139.92499999999998,119.65875730514526L140.2875,114.58708834648132L140.40833333333333,114.53741407394409L140.65,117.54329109191895L140.89166666666668,116.32203817367554L141.01250000000002,116.57621936798095L141.25416666666666,115.89450416564941L141.49583333333334,112.96481275558472L141.61666666666667,113.96101427078247L141.85833333333335,117.03288741111756L142.1,116.81806793212891L142.22083333333333,111.70832738876344L142.34166666666667,114.14052066802978L142.4625,114.97252759933471L142.825,116.33490552902222L142.94583333333333,114.78677425384521L143.06666666666666,116.68595261573792L143.42916666666667,116.51595244407653L143.55,117.2382685661316L144.51666666666668,114.43382592201233L144.87916666666666,116.51601610183715L145,118.16853761672974L145.24166666666667,118.25298175811767L145.48333333333335,115.88151373863221L145.60416666666666,116.90057687759399L145.96666666666667,114.79542746543885L146.0875,119.20487747192382L146.32916666666668,117.62940731048585L146.45,113.56902675628662L146.57083333333333,113.5148497581482L146.69166666666666,115.24443535804748L147.05416666666667,113.19509682655335L148.02083333333331,120.16868355274201L148.14166666666668,121.26998190879821L148.2625,115.92939710617065L148.50416666666666,115.59579648971558L148.74583333333334,118.97276005744934L148.86666666666665,123.20304741859437L148.9875,117.29018783569336L149.22916666666666,115.29079942703247L149.47083333333333,116.98717265129089L149.59166666666667,113.84291639328002L149.7125,122.69043056964874L150.075,118.06982564926147L150.19583333333335,119.46616711616517L150.31666666666666,115.11040182113648L150.92083333333332,113.92876949310302L151.1625,120.13899145126342L151.28333333333333,119.92816543579102L151.52499999999998,118.38344621658325L151.64583333333334,115.69800114631653L151.88750000000002,116.02775683403016L152.6125,121.50586149692535L152.73333333333332,118.44242725372314L152.975,124.15459938049317L153.21666666666667,112.7915660381317L153.70000000000002,115.26065111160278L153.9416666666667,118.08699202537537L154.1833333333333,116.22426834106446L154.42499999999998,118.47961611747742L154.66666666666666,116.94778122901917L154.90833333333333,118.31339721679687L155.02916666666667,121.65155501365662L155.15,116.91418690681458L155.27083333333334,118.48605828285217L155.39166666666668,122.3035080909729L155.875,115.33369626998902L156.11666666666667,117.11970810890197L156.23749999999998,118.74361758232116L156.9625,118.65970392227173L157.20416666666668,118.46064186096191L157.44583333333335,119.15874681472778L157.56666666666666,120.14708023071289L157.6875,123.33935565948487L158.4125,118.36614828109741L158.775,119.5043405532837L159.01666666666668,119.31831560134887L159.37916666666666,118.87197709083557L159.74166666666665,121.3787178516388L159.8625,124.31547951698303L160.10416666666669,119.3413257598877L160.225,123.39916636943818L160.34583333333333,123.49721417427062L160.46666666666667,117.92365045547486L160.70833333333334,123.17322587966919L160.82916666666665,117.13489260673524L161.07083333333333,118.21190128326415L161.19166666666666,119.35306849479676L161.3125,117.9182650089264L161.675,120.5504136800766L161.79583333333332,119.48965682983399L162.0375,120.11428375244141L163.0041666666667,115.49239082336426L163.125,119.33568143844604L163.2458333333333,117.4215350151062L163.36666666666667,123.32905583381653L163.72916666666666,121.34083724021912L163.85,123.446848154068L163.97083333333333,123.22132992744446L164.33333333333334,122.36120536327363L164.45416666666668,116.7977611064911L164.575,118.84688744544982L164.9375,121.69663743972778L166.3875,122.14309265613556L166.75,120.3098913192749L166.99166666666665,117.47885670661927L167.1125,124.20032687187195L167.35416666666666,118.72606077194214L167.475,116.84954032897949L167.8375,118.79229879379272L168.2,117.0866018295288L168.32083333333335,116.67457060813904L168.44166666666666,122.34096431732178L168.5625,122.44022161960602L168.68333333333334,121.35358788967133L168.80416666666665,123.09568648338318L168.925,124.3757400751114L169.04583333333332,121.26340818405151L169.2875,116.78850102424622L169.52916666666667,118.93391609191895L169.64999999999998,122.0550327539444L169.89166666666665,118.99968729019164L170.13333333333333,124.31800036430359L170.375,122.66169333457947L170.49583333333334,118.61818208694459L170.61666666666667,118.4293137550354L170.7375,123.42195796966553L170.85833333333332,121.81876273155213L170.97916666666666,118.425816822052L171.4625,115.35722842216492L172.0666666666667,119.66124844551086L172.1875,124.20363070964814L172.42916666666667,119.71306161880493L172.54999999999998,117.93518948554993L173.03333333333333,117.5249237060547L173.15416666666667,119.48619384765625L173.275,121.60916955471039L173.51666666666668,118.65428876876831L173.87916666666666,124.45551810264587L174.24166666666667,118.35673117637634L174.48333333333335,122.02145752906799L174.72500000000002,120.17487533092499L174.84583333333333,124.14598436355591L175.0875,121.54998693466186L175.20833333333331,120.47639455795289L175.57083333333335,117.7881103515625L175.69166666666666,123.09625515937805L175.8125,118.9568371295929L176.05416666666665,120.58518142700196L176.175,122.50678429603576L176.29583333333332,123.34275922775268L176.5375,119.51931710243225L176.65833333333333,122.0902545928955L176.77916666666667,124.13608345985412L176.9,121.26132657527924L177.02083333333334,119.7661437034607L177.14166666666668,122.47004103660583L177.74583333333334,123.05942702293396L177.86666666666665,124.62812824249268L178.10833333333332,124.48839945793152L178.59166666666667,120.12766036987304L178.71249999999998,123.12213416099549L178.95416666666665,118.97307834625244L179.4375,121.68105401992798L179.67916666666667,119.55849633216857L179.92083333333332,123.05474605560303L180.1625,121.31441926956177L180.28333333333333,123.54457554817199L180.40416666666667,124.56588368415832L180.525,119.44579238891602L180.76666666666665,121.75545508861542L181.1291666666667,121.41416249275207L181.25,122.54615025520324L181.49166666666667,120.9329183101654L181.61249999999998,123.36430950164795L181.73333333333335,120.61841926574706L181.975,121.13188276290893L182.45833333333334,126.22344052791595L182.7,121.87526111602783L182.82083333333333,121.6931214094162L183.0625,123.39766829013824L183.18333333333334,122.0844978094101L183.54583333333335,121.61971552371979L183.66666666666666,125.18940296173096L184.27083333333331,124.60473189353942L184.39166666666668,123.51592319011688L184.5125,120.90128464698792L184.63333333333335,122.95632266998291L184.875,120.60675292015075L185.11666666666665,123.91468601226806L185.2375,124.89915964603424L185.35833333333332,118.91615133285522L185.47916666666666,122.60864095687866L185.6,122.08603620529175L185.72083333333333,120.7973018169403L186.08333333333334,122.5818176984787L186.44583333333335,121.83113780021668L186.6875,121.86985020637512L186.92916666666665,125.29979612827302L187.05,123.68286354541779L187.17083333333332,123.41239233016968L187.29166666666669,125.47881872653961L187.4125,125.78672919273376L187.89583333333334,120.70073299407959L188.37916666666666,123.1678277015686L188.62083333333334,121.46822915077209L188.74166666666667,123.52334356307983L189.10416666666666,125.73375744819641L189.225,127.04542560577393L189.34583333333333,123.74613299369813L189.70833333333334,120.76039941310883L190.07083333333333,117.8997236251831L190.1916666666667,119.50304193496704L190.3125,122.06779613494874L190.55416666666667,122.82542109489441L190.67499999999998,126.53612108230591L190.79583333333335,125.24317679405212L191.15833333333333,124.75487933158874L191.4,123.6859127521515L191.52083333333334,126.50897316932678L191.64166666666668,124.53529400825501L191.7625,124.06835160255432L191.88333333333333,125.4022066116333L192.00416666666666,124.46199209690094L192.24583333333334,123.9443526506424L192.36666666666667,121.93446283340454L192.72916666666666,122.80052666664123L193.33333333333331,123.3222571849823L194.78333333333333,123.03269925117493L194.90416666666667,123.02398450374604L195.025,126.16104531288147L195.14583333333334,121.77318801879883L195.62916666666666,126.48768813610077L195.99166666666665,129.05225772857665L196.1125,117.75218191146851L196.35416666666669,124.6664587020874L196.475,127.39242405891419L196.59583333333333,122.27442498207093L196.71666666666667,124.1176778793335L196.95833333333334,124.77779188156128L197.20000000000002,127.14334397315979L197.32083333333333,124.11618828773499L197.44166666666666,120.23679947853088L197.68333333333334,123.76317629814147L197.80416666666667,121.01632907390595L197.925,127.43056566715241L198.16666666666666,121.31499855518341L198.40833333333333,123.64016616344452L199.13333333333333,120.3741177558899L199.375,126.11409983634948L199.97916666666666,119.704616355896L200.1,123.08771228790283L200.58333333333334,122.74838247299195L201.1875,122.65156326293945L201.30833333333334,126.51018903255462L201.79166666666666,126.48566806316376L202.275,125.4715256690979L202.6375,124.95000734329224L203,121.71639680862427L203.12083333333334,124.58504467010498L203.24166666666665,123.80019965171815L203.60416666666666,125.42359986305237L203.725,124.08531427383423L204.0875,121.39760723114014L204.32916666666668,128.52518632411957L204.45,127.03267283439637L204.57083333333335,125.94522852897644L205.41666666666669,128.8647262096405L205.5375,123.64080274105072L205.65833333333333,124.64133510589599L205.77916666666667,127.4933385848999L206.02083333333334,124.37843704223633L206.14166666666665,127.70340282917023L206.26250000000002,124.63118805885316L206.38333333333333,123.96002306938172L206.50416666666666,125.69971115589142L206.625,121.71969003677368L206.74583333333334,128.50245838165284L206.86666666666667,125.61104862689972L206.9875,126.42666156291962L207.35,125.03755798339844L207.59166666666667,126.58449461460114L208.19583333333333,127.15539438724518L208.3166666666667,127.11854290962219L208.4375,125.10722079277039L208.67916666666667,122.8461077451706L209.525,120.49136261940002L209.76666666666668,121.42392547130585L210.37083333333334,126.8420687675476L210.49166666666667,125.15843770503997L210.97500000000002,128.30330295562743L211.21666666666667,123.87088098526002L211.3375,124.71424021720887L211.57916666666668,127.03542709350586L211.7,127.79728105068207L211.94166666666666,121.20654482841492L212.0625,125.49656014442444L212.7875,126.18060097694396L212.90833333333333,124.03397216796876L213.02916666666667,125.14050107002258L213.63333333333335,125.0705581665039L213.75416666666666,125.56742396354676L214.84166666666667,125.7291910648346L214.96249999999998,126.19381632804871L215.32500000000002,130.130060005188L215.44583333333333,122.06674790382385L215.56666666666666,128.41094186306L215.80833333333334,128.25000019073485L216.05,124.99548869132995L216.29166666666666,126.58687541484832L216.65416666666667,124.93985605239868L216.775,128.39721937179564L217.01666666666665,123.67307722568512L217.13750000000002,123.49298729896546L217.3791666666667,127.38253588676453L217.6208333333333,124.77164466381073L217.74166666666667,125.51346340179444L217.98333333333335,123.2669025182724L218.10416666666666,125.57774500846863L218.5875,128.87512364387513L218.70833333333334,127.34138114452362L218.95,123.92481184005737L219.07083333333333,125.03488223552704L219.19166666666666,123.45173494815826L219.3125,127.1080478668213L219.55416666666667,125.63890738487244L219.67499999999998,127.73075656890869L219.79583333333335,124.97450921535491L219.91666666666666,129.60213346481322L220.4,127.29957921504975L220.64166666666668,123.82975382804871L220.7625,126.72949213981629L220.88333333333335,121.37806854248046L221.125,126.01757769584655L221.36666666666665,123.22111349105835L221.60833333333332,127.3535376548767L221.85,122.69807162284852L221.97083333333333,125.36164388656616L222.09166666666667,127.05664210319519L222.33333333333334,125.12937793731689L222.45416666666668,125.77085506916046L222.575,125.80434117317199L222.69583333333335,126.389368724823L222.81666666666666,129.44976012706758L222.9375,127.60832147598266L223.17916666666665,125.67852373123169L223.3,124.08203165531158L223.6625,125.72711157798767L223.78333333333333,128.91112847328185L224.02499999999998,128.92770919799804L224.14583333333334,126.79195737838745L224.50833333333333,129.31130237579345L224.62916666666666,130.05251848697662L224.75,124.77970798015595L224.87083333333334,126.88386220932007L224.99166666666667,125.33934245109558L225.23333333333332,127.56145238876343L225.71666666666667,125.31574239730836L225.95833333333334,127.74861044883728L226.07916666666665,127.52686288356782L226.20000000000002,126.96947128772736L226.5625,124.09723949432373L226.6833333333333,124.23222789764404L226.92499999999998,127.54972662925721L227.40833333333333,128.6042556285858L227.52916666666667,123.68283808231354L227.65,126.42375452518463L227.77083333333334,126.86616322994232L228.0125,126.13581986427307L228.49583333333334,123.47159192562103L228.61666666666667,128.72846040725707L228.85833333333335,124.46604497432709L228.97916666666666,126.51916689872742L229.10000000000002,129.8297863483429L229.22083333333333,124.54247035980225L229.4625,126.7102123260498L229.825,126.576335811615L229.94583333333335,127.54076361656189L230.06666666666666,125.87965679168701L230.1875,128.0047204732895L230.30833333333334,124.45418765544892L230.67083333333332,128.77183680534364L230.79166666666666,125.85650234222412L231.275,130.18708462715148L231.39583333333334,128.9875262737274L231.6375,126.73700375556946L231.75833333333335,126.70057454109192L231.87916666666666,130.13256387710572L232.3625,125.86837239265442L232.725,127.86489408016205L232.96666666666667,127.43582167625428L233.32916666666665,124.84531579017639L233.45000000000002,126.05825924873352L233.57083333333333,128.39674830436707L233.69166666666666,127.18699622154236L233.8125,126.27418425083161L234.05416666666667,130.11017968654633L234.175,129.66966586112977L234.29583333333332,126.46942048072815L234.65833333333333,124.74951510429382L234.77916666666667,125.8316927909851L235.02083333333334,129.2759065389633L235.14166666666665,128.06030218601228L235.26250000000002,128.5638074874878L235.625,126.75627083778382L235.86666666666667,124.69328196048737L235.98749999999998,129.66003868579864L236.10833333333335,130.21460387706756L236.22916666666666,125.27005734443665L237.075,127.36877732276916L237.19583333333333,125.64432678222656L237.55833333333334,128.0085590362549L238.16250000000002,127.98537275791168L238.64583333333331,129.31528947353362L238.8875,130.26956810951233L239.12916666666666,128.90730900764464L239.37083333333334,129.3263956308365L239.49166666666665,129.1896481513977L239.6125,125.73796098232269L239.73333333333332,126.94167194366455L240.21666666666667,128.0925342321396L240.3375,125.03829853534698L240.45833333333334,127.93017935752869L240.7,126.57840468883515L240.82083333333335,127.51213884353638L240.94166666666666,123.75782480239869L241.425,127.07444505691528L241.66666666666669,131.77246842384338L241.90833333333333,128.13297176361084L242.14999999999998,128.5960862159729L242.27083333333334,125.6034372806549L242.51250000000002,128.56046969890593L242.99583333333334,124.46714625358581L243.2375,128.23281259536742L243.35833333333332,128.79303483963014L243.72083333333333,127.67325451374055L244.08333333333334,125.85868368148803L244.5666666666667,128.4404345035553L244.8083333333333,129.13119122982025L244.92916666666667,128.93215675354003L245.29166666666666,126.13505597114563L245.775,126.3740208387375L245.89583333333334,127.44469556808471L246.01666666666668,128.24739022254943L246.1375,130.62840690612794L246.5,126.6126971244812L246.62083333333334,129.25142376422883L246.74166666666667,130.47054626941681L246.98333333333335,129.72261850833894L247.10416666666666,128.29532239437103L247.22500000000002,131.00314104557037L247.46666666666667,125.54818234443664L247.5875,131.40710046291352L247.95,128.61829428672792L248.07083333333335,128.26911873817443L248.3125,126.95518012046814L248.55416666666665,128.77632892131805L248.675,130.67139711380005L248.79583333333332,127.20291914939881L249.64166666666668,124.59741973876953L249.7625,129.09512910842895L249.88333333333335,128.5880865573883L250.00416666666666,125.19833202362061L250.72916666666669,127.66538641452789L250.85,132.62036221027375L250.97083333333333,127.89785394668579L251.09166666666667,127.47127480506897L251.21249999999998,126.25381164550781L251.45416666666665,129.28444304466248L251.81666666666666,126.97537024021149L252.17916666666667,131.47019591331483L252.6625,124.63029685020447L252.78333333333333,130.72355828285217L252.90416666666667,128.12117810249327L253.025,130.7008367061615L253.14583333333334,131.05822834968566L253.38750000000002,130.8072746038437L253.50833333333333,126.58305170536042L253.99166666666667,128.90470328330994L254.35416666666666,129.5011786222458L254.475,128.94602353572844L254.8375,128.58650784492494L254.95833333333334,130.22343533039094L255.07916666666668,129.05086150169373L255.2,127.84254808425904L255.32083333333333,129.1297398328781L255.5625,129.51985368728637L255.68333333333334,131.16016139984131L255.80416666666667,124.71569797992706L255.92499999999998,126.41571879386902L256.04583333333335,129.94833619594573L256.5291666666667,127.11379828453065L256.65,128.74401624202727L256.7708333333333,128.1721212863922L257.1333333333333,129.1868896484375L257.375,125.97749876976013L257.49583333333334,127.79670600891113L257.6166666666667,130.4416626214981L257.85833333333335,126.11340808868408L257.97916666666663,127.2654013633728L258.1,128.2324497461319L258.3416666666667,128.95796785354614L258.4625,127.01290922164917L258.825,126.41824600696563L259.06666666666666,131.65440874099733L259.30833333333334,130.2598263502121L259.4291666666667,127.38945760726929L259.67083333333335,129.441934466362L260.0333333333333,131.79406538009644L260.275,128.64385924339294L260.3958333333333,130.3867280960083L260.51666666666665,126.8158842086792L260.7583333333333,129.7664638519287L261,128.42032926082612L261.12083333333334,131.01859714984894L261.2416666666667,129.59022097587587L261.72499999999997,128.70407736301422L261.84583333333336,132.07070927619935L262.08750000000003,128.6668906211853L262.32916666666665,131.48742594718934L262.93333333333334,128.99917352199554L263.4166666666667,130.89941709041597L263.53749999999997,128.68290691375734L263.65833333333336,130.47561554908754L263.77916666666664,130.64993171691896L265.2291666666667,131.02154874801636L265.4708333333333,130.2978066921234L265.7125,128.98887794017793" style="fill: none;" fill="none"></path></g></g></g></g></g></g><g transform="translate(40, 178)" clip-path="url(#clip_1)"><clipPath id="clip_1"><rect width="290" height="22"></rect></clipPath><g><g><line x1="0" y1="0" x2="0" y2="5" style="visibility: inherit;" fill="rgb(0, 0, 0)" stroke="rgb(204, 204, 204)" stroke-width="1px"></line><line x1="24.166666666666664" y1="0" x2="24.166666666666664" y2="5" style="visibility: inherit;" fill="rgb(0, 0, 0)" stroke="rgb(204, 204, 204)" stroke-width="1px"></line><line x1="48.33333333333333" y1="0" x2="48.33333333333333" y2="5" style="visibility: inherit;" fill="rgb(0, 0, 0)" stroke="rgb(204, 204, 204)" stroke-width="1px"></line><line x1="72.5" y1="0" x2="72.5" y2="5" style="visibility: inherit;" fill="rgb(0, 0, 0)" stroke="rgb(204, 204, 204)" stroke-width="1px"></line><line x1="96.66666666666666" y1="0" x2="96.66666666666666" y2="5" style="visibility: inherit;" fill="rgb(0, 0, 0)" stroke="rgb(204, 204, 204)" stroke-width="1px"></line><line x1="120.83333333333334" y1="0" x2="120.83333333333334" y2="5" style="visibility: inherit;" fill="rgb(0, 0, 0)" stroke="rgb(204, 204, 204)" stroke-width="1px"></line><line x1="145" y1="0" x2="145" y2="5" style="visibility: inherit;" fill="rgb(0, 0, 0)" stroke="rgb(204, 204, 204)" stroke-width="1px"></line><line x1="169.16666666666669" y1="0" x2="169.16666666666669" y2="5" style="visibility: inherit;" fill="rgb(0, 0, 0)" stroke="rgb(204, 204, 204)" stroke-width="1px"></line><line x1="193.33333333333331" y1="0" x2="193.33333333333331" y2="5" style="visibility: inherit;" fill="rgb(0, 0, 0)" stroke="rgb(204, 204, 204)" stroke-width="1px"></line><line x1="217.5" y1="0" x2="217.5" y2="5" style="visibility: inherit;" fill="rgb(0, 0, 0)" stroke="rgb(204, 204, 204)" stroke-width="1px"></line><line x1="241.66666666666669" y1="0" x2="241.66666666666669" y2="5" style="visibility: inherit;" fill="rgb(0, 0, 0)" stroke="rgb(204, 204, 204)" stroke-width="1px"></line><line x1="265.8333333333333" y1="0" x2="265.8333333333333" y2="5" style="visibility: inherit;" fill="rgb(0, 0, 0)" stroke="rgb(204, 204, 204)" stroke-width="1px"></line><line x1="290" y1="0" x2="290" y2="5" style="visibility: inherit;" fill="rgb(0, 0, 0)" stroke="rgb(204, 204, 204)" stroke-width="1px"></line></g><g transform="translate(0, 8)"><text x="0" y="0" dx="0em" dy="0.95em" style="text-anchor: middle; visibility: hidden; font-family: &quot;Helvetica Neue&quot;, sans-serif; font-size: 12px; font-weight: 200;" fill="rgb(50, 49, 63)" stroke="none" stroke-width="1px">-200</text><text x="24.166666666666664" y="0" dx="0em" dy="0.95em" style="text-anchor: middle; visibility: inherit; font-family: &quot;Helvetica Neue&quot;, sans-serif; font-size: 12px; font-weight: 200;" fill="rgb(50, 49, 63)" stroke="none" stroke-width="1px">0</text><text x="48.33333333333333" y="0" dx="0em" dy="0.95em" style="text-anchor: middle; visibility: hidden; font-family: &quot;Helvetica Neue&quot;, sans-serif; font-size: 12px; font-weight: 200;" fill="rgb(50, 49, 63)" stroke="none" stroke-width="1px">200</text><text x="72.5" y="0" dx="0em" dy="0.95em" style="text-anchor: middle; visibility: inherit; font-family: &quot;Helvetica Neue&quot;, sans-serif; font-size: 12px; font-weight: 200;" fill="rgb(50, 49, 63)" stroke="none" stroke-width="1px">400</text><text x="96.66666666666666" y="0" dx="0em" dy="0.95em" style="text-anchor: middle; visibility: hidden; font-family: &quot;Helvetica Neue&quot;, sans-serif; font-size: 12px; font-weight: 200;" fill="rgb(50, 49, 63)" stroke="none" stroke-width="1px">600</text><text x="120.83333333333334" y="0" dx="0em" dy="0.95em" style="text-anchor: middle; visibility: inherit; font-family: &quot;Helvetica Neue&quot;, sans-serif; font-size: 12px; font-weight: 200;" fill="rgb(50, 49, 63)" stroke="none" stroke-width="1px">800</text><text x="145" y="0" dx="0em" dy="0.95em" style="text-anchor: middle; visibility: hidden; font-family: &quot;Helvetica Neue&quot;, sans-serif; font-size: 12px; font-weight: 200;" fill="rgb(50, 49, 63)" stroke="none" stroke-width="1px">1k</text><text x="169.16666666666669" y="0" dx="0em" dy="0.95em" style="text-anchor: middle; visibility: inherit; font-family: &quot;Helvetica Neue&quot;, sans-serif; font-size: 12px; font-weight: 200;" fill="rgb(50, 49, 63)" stroke="none" stroke-width="1px">1.2k</text><text x="193.33333333333331" y="0" dx="0em" dy="0.95em" style="text-anchor: middle; visibility: hidden; font-family: &quot;Helvetica Neue&quot;, sans-serif; font-size: 12px; font-weight: 200;" fill="rgb(50, 49, 63)" stroke="none" stroke-width="1px">1.4k</text><text x="217.5" y="0" dx="0em" dy="0.95em" style="text-anchor: middle; visibility: inherit; font-family: &quot;Helvetica Neue&quot;, sans-serif; font-size: 12px; font-weight: 200;" fill="rgb(50, 49, 63)" stroke="none" stroke-width="1px">1.6k</text><text x="241.66666666666669" y="0" dx="0em" dy="0.95em" style="text-anchor: middle; visibility: hidden; font-family: &quot;Helvetica Neue&quot;, sans-serif; font-size: 12px; font-weight: 200;" fill="rgb(50, 49, 63)" stroke="none" stroke-width="1px">1.8k</text><text x="265.8333333333333" y="0" dx="0em" dy="0.95em" style="text-anchor: middle; visibility: inherit; font-family: &quot;Helvetica Neue&quot;, sans-serif; font-size: 12px; font-weight: 200;" fill="rgb(50, 49, 63)" stroke="none" stroke-width="1px">2k</text><text x="290" y="0" dx="0em" dy="0.95em" style="text-anchor: middle; visibility: hidden; font-family: &quot;Helvetica Neue&quot;, sans-serif; font-size: 12px; font-weight: 200;" fill="rgb(50, 49, 63)" stroke="none" stroke-width="1px">2.2k</text></g><line x1="0" y1="0" x2="290" y2="0" fill="rgb(0, 0, 0)" stroke="rgb(204, 204, 204)" stroke-width="1px"></line></g></g></g></g></svg>